#!OML:ASF H:\Terrain\Patient Classification 1\Animal1\Tuesday\Animal1.ASF
:FULLY-SPECIFIED
:DEGREES
3841
root 3.68821 16.0374 -21.132 -1620.74 -122.305 -531.627
lowerback 13.631 -2.4204 -3.09642
upperback 4.90969 -3.67339 1.51257
thorax -2.16002 -1.91868 3.87867
lowerneck -5.54661 -1.40731 -6.66014
upperneck 8.71289 -1.93164 6.62892
head 3.62598 -0.878822 3.01675
rclavicle 2.70347e-014 -2.14687e-014
rhumerus -75.2831 15.154 -95.8757
rradius 76.3443
rwrist -76.363
rhand 13.2046 -356.309
rfingers 7.12502
rthumb 38.159 -22.0649
lclavicle 2.70347e-014 -2.14687e-014
lhumerus -63.6478 -13.7176 108.382
lradius 54.6122
lwrist 33.8249
lhand -9.52026 38.6855
lfingers 7.12502
lthumb 16.4456 -291.992
rfemur -51.7117 14.7945 3.01898
rtibia 41.3216
rfoot 37.1303 6.16721
rtoes 3.98807
lfemur -23.316 -3.92613 -25.7189
ltibia 58.398
lfoot 29.0323 -7.84744
ltoes 31.9728
3842
root 3.52911 15.9807 -21.1349 -1620.62 -123.275 -531.562
lowerback 13.9789 -2.49363 -2.95894
upperback 4.74255 -3.75862 1.38264
thorax -2.53376 -1.94429 3.70516
lowerneck -5.73727 -1.46992 -6.48291
upperneck 8.66012 -2.02257 6.67667
head 3.64676 -0.912031 2.99675
rclavicle -4.92986e-014 2.22639e-014
rhumerus -75.4848 15.0829 -96.1631
rradius 76.4848
rwrist -76.3425
rhand 14.0627 -355.8
rfingers 7.12502
rthumb 38.9686 -21.329
lclavicle -4.92986e-014 2.22639e-014
lhumerus -63.9431 -13.4237 108.012
lradius 54.8171
lwrist 34.0398
lhand -9.75442 38.7319
lfingers 7.12502
lthumb 16.2201 -291.927
rfemur -51.7371 13.2896 4.02657
rtibia 43.0842
rfoot 37.0272 5.34601
rtoes 6.33993
lfemur -23.5412 -4.48473 -25.3234
ltibia 59.2061
lfoot 29.1779 -7.93772
ltoes 33.0994
3843
root 3.37656 15.9205 -21.1432 -1620.68 -124.113 -531.357
lowerback 14.4484 -2.51605 -2.9154
upperback 4.62214 -3.79562 1.22718
thorax -2.92373 -1.94816 3.55699
lowerneck -5.86235 -1.54377 -6.34616
upperneck 8.43691 -2.11872 6.70538
head 3.60582 -0.951004 2.97683
rclavicle -5.46658e-014 1.27222e-014
rhumerus -75.5582 15.024 -96.3221
rradius 76.3739
rwrist -75.5066
rhand 14.3757 -355.07
rfingers 7.12502
rthumb 39.2637 -20.5143
lclavicle -5.46658e-014 1.27222e-014
lhumerus -64.1553 -13.024 107.495
lradius 54.9693
lwrist 33.6661
lhand -9.12678 38.8761
lfingers 7.12502
lthumb 16.8244 -291.833
rfemur -51.8838 12.0286 4.80031
rtibia 44.9186
rfoot 33.5561 8.83973
rtoes -8.28346
lfemur -23.8313 -5.24524 -25.0147
ltibia 60.1499
lfoot 28.9615 -7.87449
ltoes 35.4165
3844
root 3.23333 15.8622 -21.1568 -1620.79 -124.89 -531.23
lowerback 15.1011 -2.52755 -2.909
upperback 4.62029 -3.82924 1.15623
thorax -3.27871 -1.95587 3.52491
lowerneck -6.17445 -1.64141 -6.29797
upperneck 8.08599 -2.22291 6.75323
head 3.55922 -0.992397 2.97568
rclavicle -2.56432e-014 1.43125e-014
rhumerus -75.4379 15.1604 -96.4236
rradius 76.3308
rwrist -74.9611
rhand 13.0527 -354.828
rfingers 7.12502
rthumb 38.0157 -20.6232
lclavicle -2.56432e-014 1.43125e-014
lhumerus -64.1465 -12.6724 107.148
lradius 55.076
lwrist 33.2609
lhand -8.78731 38.9665
lfingers 7.12502
lthumb 17.1512 -291.77
rfemur -52.1587 10.9607 5.42151
rtibia 46.7676
rfoot 33.2303 11.1131
rtoes -6.07889
lfemur -24.0136 -6.13622 -24.7351
ltibia 61.1429
lfoot 28.5803 -8.46789
ltoes 33.933
3845
root 3.10128 15.8211 -21.1688 -1620.39 -125.701 -531.715
lowerback 15.847 -2.57609 -2.44739
upperback 4.69613 -3.84209 1.15427
thorax -3.62835 -1.95602 3.30895
lowerneck -6.6348 -1.76091 -6.19271
upperneck 7.6396 -2.35678 6.87271
head 3.5106 -1.04151 2.98457
rclavicle -3.97569e-015 -4.13472e-014
rhumerus -75.2099 15.2575 -96.4825
rradius 76.4033
rwrist -74.9405
rhand 11.6495 -354.799
rfingers 7.12502
rthumb 36.6892 -20.943
lclavicle -3.97569e-015 -4.13472e-014
lhumerus -63.9377 -12.4931 106.87
lradius 55.0297
lwrist 33.4478
lhand -8.78583 38.8852
lfingers 7.12502
lthumb 17.1526 -291.852
rfemur -52.565 9.88404 6.28781
rtibia 48.518
rfoot 33.2042 9.78326
rtoes -0.588385
lfemur -24.3424 -6.96186 -24.0666
ltibia 62.1645
lfoot 28.4516 -9.01698
ltoes 32.3153
3846
root 2.97585 15.784 -21.1782 -1619.72 -126.36 -532.432
lowerback 16.4227 -2.61753 -1.71715
upperback 4.83528 -3.79567 1.10428
thorax -3.84371 -1.9321 2.86718
lowerneck -6.95113 -1.84931 -6.08364
upperneck 6.90666 -2.44842 7.04172
head 3.34965 -1.07221 3.01042
rclavicle 1.02175e-013 -9.54166e-015
rhumerus -74.8291 15.2353 -96.5448
rradius 76.3415
rwrist -74.9566
rhand 11.5581 -354.858
rfingers 7.12502
rthumb 36.6026 -21.0239
lclavicle 1.02175e-013 -9.54166e-015
lhumerus -63.6418 -12.5408 106.581
lradius 54.8485
lwrist 33.9355
lhand -8.73568 38.6397
lfingers 7.12502
lthumb 17.2009 -292.102
rfemur -53.2478 8.79657 7.29865
rtibia 50.1645
rfoot 33.1196 9.23054
rtoes 1.71182
lfemur -24.9126 -7.57415 -23.1454
ltibia 63.2497
lfoot 28.3146 -9.99305
ltoes 31.944
3847
root 2.85817 15.7429 -21.1904 -1619 -126.849 -533.304
lowerback 17.1751 -2.72756 -1.13499
upperback 4.97435 -3.84839 1.25178
thorax -4.12078 -1.95836 2.74625
lowerneck -7.39539 -1.77528 -6.27797
upperneck 6.31238 -2.27947 7.09203
head 3.23591 -0.984558 3.06319
rclavicle 1.03368e-014 -1.19271e-015
rhumerus -74.4262 15.7629 -96.587
rradius 76.0823
rwrist -74.6782
rhand 12.5901 -354.326
rfingers 7.12502
rthumb 37.5786 -20.2384
lclavicle 1.03368e-014 -1.19271e-015
lhumerus -63.2111 -12.0454 106.409
lradius 54.686
lwrist 34.4974
lhand -8.8796 38.2234
lfingers 7.12502
lthumb 17.0623 -292.506
rfemur -53.8791 7.88376 8.38211
rtibia 51.6207
rfoot 33.8391 10.1508
rtoes 2.98713
lfemur -25.3627 -8.44218 -22.1756
ltibia 64.3263
lfoot 27.9483 -10.8291
ltoes 30.835
3848
root 2.74907 15.6953 -21.2076 -1618.39 -127.163 -534.281
lowerback 18.2711 -2.75333 -0.699908
upperback 5.13782 -3.80231 1.53722
thorax -4.53609 -1.93658 2.85593
lowerneck -7.84586 -1.65628 -6.40566
upperneck 5.69068 -2.04123 6.95816
head 3.10689 -0.868192 3.05229
rclavicle 1.82882e-014 -5.1684e-015
rhumerus -74.138 16.5015 -96.4982
rradius 75.8801
rwrist -74.2614
rhand 12.1086 -354.819
rfingers 7.12502
rthumb 37.1234 -20.8513
lclavicle 1.82882e-014 -5.1684e-015
lhumerus -62.7364 -11.5008 106.436
lradius 54.4928
lwrist 35.2302
lhand -8.69463 38.0679
lfingers 7.12502
lthumb 17.2404 -292.677
rfemur -54.3584 7.28281 9.41294
rtibia 52.9086
rfoot 34.8941 9.71476
rtoes 5.73619
lfemur -25.6584 -8.93447 -21.1303
ltibia 65.3817
lfoot 27.6744 -11.4224
ltoes 30.1093
3849
root 2.64724 15.6561 -21.2235 -1617.88 -127.27 -534.936
lowerback 19.1796 -2.57245 -0.251073
upperback 5.35023 -3.48776 1.58957
thorax -4.82527 -1.78574 2.6363
lowerneck -8.02065 -1.6781 -6.20644
upperneck 4.4862 -2.01831 6.70082
head 3.07201 -0.879445 3.26008
rclavicle -1.90833e-014 -3.97569e-015
rhumerus -73.8091 16.6518 -96.4187
rradius 75.7742
rwrist -74.0387
rhand 12.3248 -354.99
rfingers 7.12502
rthumb 37.3279 -20.9687
lclavicle -1.90833e-014 -3.97569e-015
lhumerus -62.2554 -11.5152 106.256
lradius 54.2306
lwrist 35.6913
lhand -8.41225 38.6294
lfingers 7.12502
lthumb 17.5121 -292.139
rfemur -55.0493 6.82516 10.1683
rtibia 54.0455
rfoot 36.2014 8.55924
rtoes 9.34284
lfemur -26.0315 -9.22302 -20.2971
ltibia 66.2961
lfoot 27.611 -11.9019
ltoes 30.9756
